<svg xmlns="http://www.w3.org/2000/svg" xmlns:xlink="http://www.w3.org/1999/xlink" width="500" zoomAndPan="magnify" viewBox="0 0 375 374.999991" height="500" preserveAspectRatio="xMidYMid meet" version="1.0"><defs><clipPath id="ad4211fc73"><path d="M 112.5 88.074219 L 200 88.074219 L 200 176 L 112.5 176 Z M 112.5 88.074219 " clip-rule="nonzero"/></clipPath><clipPath id="9f62478246"><path d="M 204 176 L 262.5 176 L 262.5 235.074219 L 204 235.074219 Z M 204 176 " clip-rule="nonzero"/></clipPath><clipPath id="c56b75d145"><path d="M 231 222 L 236 222 L 236 235.074219 L 231 235.074219 Z M 231 222 " clip-rule="nonzero"/></clipPath><clipPath id="9ff677e918"><path d="M 250 203 L 262.5 203 L 262.5 209 L 250 209 Z M 250 203 " clip-rule="nonzero"/></clipPath></defs><g clip-path="url(#ad4211fc73)"><path fill="#38b6ff" d="M 199.515625 131.574219 C 199.515625 133 199.449219 134.421875 199.308594 135.839844 C 199.167969 137.257812 198.960938 138.667969 198.683594 140.066406 C 198.40625 141.464844 198.058594 142.84375 197.648438 144.210938 C 197.234375 145.574219 196.753906 146.914062 196.210938 148.230469 C 195.667969 149.546875 195.058594 150.835938 194.386719 152.09375 C 193.71875 153.347656 192.988281 154.570312 192.195312 155.753906 C 191.40625 156.941406 190.558594 158.085938 189.65625 159.1875 C 188.753906 160.289062 187.800781 161.34375 186.792969 162.351562 C 185.789062 163.359375 184.734375 164.316406 183.636719 165.21875 C 182.535156 166.125 181.394531 166.972656 180.210938 167.765625 C 179.027344 168.554688 177.808594 169.289062 176.554688 169.960938 C 175.300781 170.632812 174.015625 171.242188 172.699219 171.785156 C 171.386719 172.332031 170.046875 172.8125 168.6875 173.226562 C 167.324219 173.640625 165.945312 173.984375 164.550781 174.261719 C 163.15625 174.542969 161.75 174.75 160.335938 174.890625 C 158.917969 175.03125 157.5 175.097656 156.074219 175.097656 C 154.652344 175.097656 153.234375 175.03125 151.816406 174.890625 C 150.402344 174.75 148.996094 174.542969 147.601562 174.261719 C 146.207031 173.984375 144.828125 173.640625 143.464844 173.226562 C 142.105469 172.8125 140.765625 172.332031 139.453125 171.785156 C 138.136719 171.242188 136.851562 170.632812 135.597656 169.960938 C 134.34375 169.289062 133.125 168.554688 131.941406 167.765625 C 130.757812 166.972656 129.617188 166.125 128.515625 165.21875 C 127.417969 164.316406 126.363281 163.359375 125.359375 162.351562 C 124.351562 161.34375 123.398438 160.289062 122.496094 159.1875 C 121.59375 158.085938 120.746094 156.941406 119.957031 155.753906 C 119.164062 154.570312 118.433594 153.347656 117.765625 152.09375 C 117.09375 150.835938 116.484375 149.546875 115.941406 148.230469 C 115.398438 146.914062 114.917969 145.574219 114.503906 144.210938 C 114.09375 142.84375 113.746094 141.464844 113.46875 140.066406 C 113.191406 138.667969 112.984375 137.257812 112.84375 135.839844 C 112.703125 134.421875 112.632812 133 112.632812 131.574219 C 112.632812 130.148438 112.703125 128.726562 112.84375 127.308594 C 112.984375 125.890625 113.191406 124.480469 113.46875 123.082031 C 113.746094 121.683594 114.09375 120.304688 114.503906 118.941406 C 114.917969 117.574219 115.398438 116.234375 115.941406 114.917969 C 116.484375 113.601562 117.09375 112.3125 117.765625 111.058594 C 118.433594 109.800781 119.164062 108.578125 119.957031 107.394531 C 120.746094 106.207031 121.59375 105.066406 122.496094 103.960938 C 123.398438 102.859375 124.351562 101.804688 125.359375 100.796875 C 126.363281 99.789062 127.417969 98.832031 128.515625 97.929688 C 129.617188 97.023438 130.757812 96.175781 131.941406 95.386719 C 133.125 94.59375 134.34375 93.859375 135.597656 93.1875 C 136.851562 92.515625 138.136719 91.910156 139.453125 91.363281 C 140.765625 90.816406 142.105469 90.335938 143.464844 89.925781 C 144.828125 89.511719 146.207031 89.164062 147.601562 88.886719 C 148.996094 88.609375 150.402344 88.398438 151.816406 88.257812 C 153.234375 88.121094 154.652344 88.050781 156.074219 88.050781 C 157.5 88.050781 158.917969 88.121094 160.335938 88.257812 C 161.75 88.398438 163.15625 88.609375 164.550781 88.886719 C 165.945312 89.164062 167.324219 89.511719 168.6875 89.925781 C 170.046875 90.335938 171.386719 90.816406 172.699219 91.363281 C 174.015625 91.910156 175.300781 92.515625 176.554688 93.1875 C 177.808594 93.859375 179.027344 94.59375 180.210938 95.386719 C 181.394531 96.175781 182.535156 97.023438 183.636719 97.929688 C 184.734375 98.832031 185.789062 99.789062 186.792969 100.796875 C 187.800781 101.804688 188.753906 102.859375 189.65625 103.960938 C 190.558594 105.066406 191.40625 106.207031 192.195312 107.394531 C 192.988281 108.578125 193.71875 109.800781 194.386719 111.058594 C 195.058594 112.3125 195.667969 113.601562 196.210938 114.917969 C 196.753906 116.234375 197.234375 117.574219 197.648438 118.941406 C 198.058594 120.304688 198.40625 121.683594 198.683594 123.082031 C 198.960938 124.480469 199.167969 125.890625 199.308594 127.308594 C 199.449219 128.726562 199.515625 130.148438 199.515625 131.574219 Z M 199.515625 131.574219 " fill-opacity="1" fill-rule="nonzero"/></g><path fill="#363636" d="M 193.222656 233.191406 C 192.996094 233.191406 192.765625 233.160156 192.542969 233.09375 L 125.121094 212.589844 C 124.136719 212.292969 123.460938 211.378906 123.460938 210.347656 L 123.460938 131.625 C 123.460938 130.875 123.816406 130.175781 124.417969 129.734375 C 125.019531 129.292969 125.796875 129.164062 126.507812 129.390625 L 193.929688 150.710938 C 194.902344 151.019531 195.5625 151.921875 195.5625 152.945312 L 195.5625 230.847656 C 195.5625 231.589844 195.210938 232.289062 194.617188 232.734375 C 194.207031 233.035156 193.71875 233.191406 193.222656 233.191406 Z M 128.140625 208.609375 L 190.882812 227.6875 L 190.882812 154.664062 L 128.140625 134.824219 Z M 128.140625 208.609375 " fill-opacity="1" fill-rule="nonzero"/><path fill="#363636" d="M 193.222656 233.191406 C 192.8125 233.191406 192.398438 233.082031 192.03125 232.867188 C 191.320312 232.445312 190.882812 231.675781 190.882812 230.847656 L 190.882812 154.664062 L 125.097656 133.859375 C 124.167969 133.566406 123.519531 132.730469 123.464844 131.761719 C 123.40625 130.789062 123.957031 129.882812 124.839844 129.484375 L 189.460938 100.40625 C 189.996094 100.164062 190.601562 100.132812 191.15625 100.320312 L 253.894531 121.183594 C 254.175781 121.269531 254.433594 121.40625 254.65625 121.582031 C 254.761719 121.664062 254.859375 121.757812 254.945312 121.855469 C 255.304688 122.253906 255.53125 122.773438 255.546875 123.347656 C 255.550781 123.378906 255.550781 123.410156 255.550781 123.441406 L 255.550781 197.777344 C 255.550781 198.632812 255.085938 199.421875 254.335938 199.832031 L 194.351562 232.902344 C 194 233.097656 193.613281 233.191406 193.222656 233.191406 Z M 195.5625 154.40625 L 195.5625 226.882812 L 250.867188 196.394531 L 250.867188 127.191406 Z M 132.363281 131.242188 L 193.035156 150.425781 L 247.046875 123.847656 L 190.546875 105.058594 Z M 132.363281 131.242188 " fill-opacity="1" fill-rule="nonzero"/><path fill="#ffffff" d="M 206.589844 205.941406 C 206.589844 220.707031 218.535156 232.671875 233.269531 232.671875 C 248 232.671875 259.949219 220.707031 259.949219 205.941406 C 259.949219 191.179688 248 179.210938 233.269531 179.210938 C 218.535156 179.210938 206.589844 191.179688 206.589844 205.941406 Z M 206.589844 205.941406 " fill-opacity="1" fill-rule="nonzero"/><g clip-path="url(#9f62478246)"><path fill="#363636" d="M 233.269531 235.015625 C 217.265625 235.015625 204.25 221.972656 204.25 205.941406 C 204.25 189.910156 217.265625 176.867188 233.269531 176.867188 C 249.269531 176.867188 262.289062 189.910156 262.289062 205.941406 C 262.289062 221.972656 249.269531 235.015625 233.269531 235.015625 Z M 233.269531 181.554688 C 219.847656 181.554688 208.929688 192.496094 208.929688 205.941406 C 208.929688 219.390625 219.847656 230.328125 233.269531 230.328125 C 246.6875 230.328125 257.609375 219.390625 257.609375 205.941406 C 257.609375 192.496094 246.6875 181.554688 233.269531 181.554688 Z M 233.269531 181.554688 " fill-opacity="1" fill-rule="nonzero"/></g><path fill="#363636" d="M 233.390625 189.011719 C 232.097656 189.011719 231.050781 187.964844 231.050781 186.667969 L 231.050781 179.210938 C 231.050781 177.917969 232.097656 176.867188 233.390625 176.867188 C 234.683594 176.867188 235.730469 177.917969 235.730469 179.210938 L 235.730469 186.667969 C 235.730469 187.964844 234.683594 189.011719 233.390625 189.011719 Z M 233.390625 189.011719 " fill-opacity="1" fill-rule="nonzero"/><g clip-path="url(#c56b75d145)"><path fill="#363636" d="M 233.390625 235.015625 C 232.097656 235.015625 231.050781 233.96875 231.050781 232.671875 L 231.050781 225.214844 C 231.050781 223.921875 232.097656 222.871094 233.390625 222.871094 C 234.683594 222.871094 235.730469 223.921875 235.730469 225.214844 L 235.730469 232.671875 C 235.730469 233.96875 234.683594 235.015625 233.390625 235.015625 Z M 233.390625 235.015625 " fill-opacity="1" fill-rule="nonzero"/></g><path fill="#363636" d="M 214.082031 208.285156 L 206.636719 208.285156 C 205.34375 208.285156 204.296875 207.238281 204.296875 205.941406 C 204.296875 204.648438 205.34375 203.597656 206.636719 203.597656 L 214.082031 203.597656 C 215.371094 203.597656 216.421875 204.648438 216.421875 205.941406 C 216.421875 207.238281 215.371094 208.285156 214.082031 208.285156 Z M 214.082031 208.285156 " fill-opacity="1" fill-rule="nonzero"/><g clip-path="url(#9ff677e918)"><path fill="#363636" d="M 259.882812 208.285156 L 252.441406 208.285156 C 251.148438 208.285156 250.101562 207.238281 250.101562 205.941406 C 250.101562 204.648438 251.148438 203.597656 252.441406 203.597656 L 259.882812 203.597656 C 261.175781 203.597656 262.222656 204.648438 262.222656 205.941406 C 262.222656 207.238281 261.175781 208.285156 259.882812 208.285156 Z M 259.882812 208.285156 " fill-opacity="1" fill-rule="nonzero"/></g><path fill="#ffffff" d="M 232.472656 196.480469 L 232.472656 205.941406 L 240.121094 205.941406 " fill-opacity="1" fill-rule="nonzero"/><path fill="#363636" d="M 240.121094 208.285156 L 232.472656 208.285156 C 231.179688 208.285156 230.132812 207.238281 230.132812 205.941406 L 230.132812 196.480469 C 230.132812 195.183594 231.179688 194.136719 232.472656 194.136719 C 233.765625 194.136719 234.8125 195.183594 234.8125 196.480469 L 234.8125 203.597656 L 240.121094 203.597656 C 241.414062 203.597656 242.460938 204.648438 242.460938 205.941406 C 242.460938 207.238281 241.414062 208.285156 240.121094 208.285156 Z M 240.121094 208.285156 " fill-opacity="1" fill-rule="nonzero"/><path fill="#363636" d="M 164.941406 146.347656 C 164.707031 146.347656 164.46875 146.308594 164.238281 146.238281 L 144.734375 140.070312 C 143.820312 139.78125 143.175781 138.964844 143.105469 138.003906 C 143.035156 137.046875 143.554688 136.144531 144.417969 135.726562 L 205.699219 105.855469 C 206.246094 105.589844 206.878906 105.546875 207.457031 105.738281 L 225.167969 111.628906 C 226.066406 111.925781 226.695312 112.738281 226.765625 113.679688 C 226.835938 114.625 226.332031 115.519531 225.488281 115.945312 L 166 146.09375 C 165.667969 146.261719 165.304688 146.347656 164.941406 146.347656 Z M 151.742188 137.371094 L 164.738281 141.480469 L 218.359375 114.304688 L 206.886719 110.492188 Z M 151.742188 137.371094 " fill-opacity="1" fill-rule="nonzero"/><path fill="#363636" d="M 164.941406 158.171875 C 164.707031 158.171875 164.46875 158.136719 164.242188 158.0625 L 144.738281 151.90625 C 143.761719 151.597656 143.101562 150.695312 143.101562 149.671875 L 143.101562 137.835938 C 143.101562 137.085938 143.453125 136.386719 144.058594 135.945312 C 144.660156 135.503906 145.433594 135.375 146.144531 135.597656 L 165.648438 141.765625 C 166.621094 142.074219 167.285156 142.980469 167.285156 144.003906 L 167.285156 155.828125 C 167.285156 156.574219 166.929688 157.277344 166.328125 157.71875 C 165.921875 158.015625 165.433594 158.171875 164.941406 158.171875 Z M 147.78125 147.953125 L 162.601562 152.628906 L 162.601562 145.71875 L 147.78125 141.03125 Z M 147.78125 147.953125 " fill-opacity="1" fill-rule="nonzero"/></svg>