<svg width="504" height="416" viewBox="0 0 504 416" fill="none" xmlns="http://www.w3.org/2000/svg">
<path d="M335.7 399.9L202.8 399.3C186.8 399.2 173.9 386.2 174 370.2L175.4 37.1C175.5 21.1 188.5 8.20002 204.5 8.30002L337.4 8.90002C353.4 9.00002 366.3 22 366.2 38L364.8 371.1C364.6 387.1 351.6 399.9 335.7 399.9Z" fill="black"/>
<path d="M337.1 20.4L311.3 20.3C307.8 20.4 305 23.3 305 26.8V31.5C305.1 35 302.3 38 298.8 38C298.8 38 298.8 38 298.7 38L248.5 37.8C245 37.7 242.2 34.8 242.3 31.2V26.5C242.4 23 239.6 20 236.1 19.9H227L204.5 19.8C193.3 19.8 184.2 28.8 184.1 40L182.7 365.1C182.7 376.3 191.7 385.4 202.9 385.4L335.5 386C346.7 386.1 355.8 377 355.9 365.8L357.3 40.7C357.4 29.6 348.3 20.4 337.1 20.4Z" fill="white"/>
<path d="M246.3 107.1H298.4C303.8 107.1 308.2 111.5 308.2 116.9V169C308.2 174.4 303.8 178.8 298.4 178.8H246.3C240.9 178.8 236.5 174.4 236.5 169V116.9C236.6 111.5 240.9 107.1 246.3 107.1Z" fill="#0F6292"/>
<path d="M217.7 133.2L219.4 136.7L223.3 137.2L220.5 140L221.1 143.8L217.7 142L214.2 143.8L214.9 140L212.1 137.2L216 136.7L217.7 133.2Z" fill="#0F6292"/>
<path d="M329.2 98.5L330.5 101.2L333.5 101.7L331.3 103.8L331.9 106.7L329.2 105.3L326.5 106.7L327 103.8L324.9 101.7L327.9 101.2L329.2 98.5Z" fill="#0F6292"/>
<path d="M326.6 163.4L327.7 164.9H329.7L328.5 166.5L329.2 168.3L327.3 167.7L325.8 168.9V167L324.2 165.9L326 165.2L326.6 163.4Z" fill="#0F6292"/>
<path d="M216.4 110C215.4 110 214.6 109.2 214.6 108.2C214.6 107.2 215.4 106.4 216.4 106.4C217.4 106.4 218.2 107.2 218.2 108.2C218.2 109.2 217.4 110 216.4 110ZM216.4 107.4C215.9 107.4 215.6 107.8 215.6 108.2C215.6 108.7 216 109 216.4 109C216.9 109 217.2 108.6 217.2 108.2C217.2 107.7 216.8 107.3 216.4 107.4C216.4 107.3 216.4 107.3 216.4 107.4Z" fill="#0F6292"/>
<path d="M319.5 135.2C318.5 135.2 317.7 134.4 317.7 133.4C317.7 132.4 318.5 131.6 319.5 131.6C320.5 131.6 321.3 132.4 321.3 133.4C321.4 134.4 320.5 135.2 319.5 135.2ZM319.5 132.6C319 132.6 318.7 133 318.7 133.4C318.7 133.8 319.1 134.2 319.5 134.2C319.9 134.2 320.3 133.8 320.3 133.4C320.4 132.9 320 132.6 319.5 132.6Z" fill="#0F6292"/>
<path d="M295.7 96.7C294.7 96.7 293.9 95.9 293.9 94.9C293.9 93.9 294.7 93.1 295.7 93.1C296.7 93.1 297.5 93.9 297.5 94.9C297.6 95.9 296.7 96.7 295.7 96.7ZM295.7 94C295.2 94 294.9 94.4 294.9 94.8C294.9 95.2 295.3 95.6 295.7 95.6C296.2 95.6 296.5 95.2 296.5 94.8C296.6 94.4 296.2 94 295.7 94Z" fill="#0F6292"/>
<path d="M206.4 168.8C207.118 168.8 207.7 168.218 207.7 167.5C207.7 166.782 207.118 166.2 206.4 166.2C205.682 166.2 205.1 166.782 205.1 167.5C205.1 168.218 205.682 168.8 206.4 168.8Z" fill="#0F6292"/>
<path d="M268.9 186.4C268.9 187.1 268.3 187.7 267.6 187.7C266.9 187.7 266.3 187.1 266.3 186.4C266.3 185.7 266.9 185.1 267.6 185.1C268.3 185.1 268.9 185.6 268.9 186.4Z" fill="#0F6292"/>
<path d="M254.7 82.7C255.418 82.7 256 82.118 256 81.4C256 80.682 255.418 80.1 254.7 80.1C253.982 80.1 253.4 80.682 253.4 81.4C253.4 82.118 253.982 82.7 254.7 82.7Z" fill="#0F6292"/>
<path d="M319.7 201.8H246.6V254.7H319.7V201.8Z" fill="#263238"/>
<path d="M286.3 201.8H222.6V254.7H286.3V201.8Z" fill="#455A64"/>
<path d="M222.6 201.8L211.3 190.5H240L250.6 201.8H222.6Z" fill="#455A64"/>
<path d="M286.3 201.8L299.3 190.5H335L319.7 201.8H286.3Z" fill="#455A64"/>
<path d="M286.3 201.8C286.3 201.9 272 202.1 254.4 202.1C236.8 202.1 222.5 202 222.5 201.8C222.5 201.6 236.7 201.5 254.4 201.5C272.1 201.5 286.3 201.6 286.3 201.8Z" fill="#263238"/>
<path d="M213.5 310.9H331.1C333.9 310.9 336.2 313.2 336.2 316V316.2C336.2 319 333.9 321.3 331.1 321.3H213.5C210.7 321.3 208.4 319 208.4 316.2V316C208.4 313.2 210.7 310.9 213.5 310.9Z" fill="#E0E0E0"/>
<path d="M213.5 310.9H271.1C273.9 310.9 276.2 313.2 276.2 316V316.2C276.2 319 273.9 321.3 271.1 321.3H213.5C210.7 321.3 208.4 319 208.4 316.2V316C208.4 313.2 210.7 310.9 213.5 310.9Z" fill="#0F6292"/>
<path d="M263.9 346.8C263.9 348.9 262.4 350.6 259.4 350.6C257.7 350.7 256.1 350.1 254.9 349L255.5 348C256.5 349 257.9 349.5 259.4 349.5C261.5 349.5 262.6 348.5 262.6 346.9C262.6 345.3 261.6 344.3 258.4 344.3H255.7L256.3 338H263.2V339.1H257.5L257.1 343.1H258.7C262.5 343.1 263.9 344.6 263.9 346.8Z" fill="#0F6292"/>
<path d="M273.9 346.8C273.9 348.9 272.4 350.6 269.4 350.6C267.7 350.7 266.1 350.1 264.9 349L265.5 348C266.5 349 267.9 349.5 269.4 349.5C271.5 349.5 272.6 348.5 272.6 346.9C272.6 345.3 271.6 344.3 268.4 344.3H265.7L266.3 338H273.2V339.1H267.5L267.1 343.1H268.7C272.5 343.1 273.9 344.6 273.9 346.8Z" fill="#0F6292"/>
<path d="M275.2 341.3C275.2 339.3 276.3 337.9 278 337.9C279.7 337.9 280.8 339.2 280.8 341.3C280.8 343.4 279.6 344.7 278 344.7C276.4 344.7 275.2 343.4 275.2 341.3ZM280 341.3C280 339.7 279.2 338.7 278.1 338.7C277 338.7 276.2 339.7 276.2 341.3C276.2 342.9 277 343.9 278.1 343.9C279.2 343.9 280 342.9 280 341.3ZM285.6 338H286.6L278.1 350.5H277L285.6 338ZM282.9 347.2C282.9 345.2 284.1 343.8 285.7 343.8C287.3 343.8 288.5 345.2 288.5 347.2C288.5 349.2 287.4 350.6 285.7 350.6C284 350.6 282.9 349.3 282.9 347.2ZM287.7 347.2C287.7 345.6 286.9 344.6 285.8 344.6C284.7 344.6 283.9 345.6 283.9 347.2C283.9 348.8 284.7 349.8 285.8 349.8C286.9 349.8 287.6 348.8 287.7 347.2Z" fill="#0F6292"/>
<path d="M487.2 399.6C487.2 399.7 381.9 399.9 252 399.9C122.1 399.9 16.8 399.8 16.8 399.6C16.8 399.4 122.1 399.3 252 399.3C381.9 399.3 487.2 399.4 487.2 399.6Z" fill="#263238"/>
<path d="M200.4 388.2L203.3 399.2L235.5 398.9C235.5 398.9 231.1 395.6 214.9 395.8L213.3 388.2H200.4V388.2Z" fill="#FFBE9D"/>
<path d="M165.3 263.9L141.2 266.2L131.4 269C127.2 270.2 123.4 272.4 120.2 275.4L88.6 305.7L82.8 258.6L67 259.9L69.6 320.6C72 328.1 78.9 333.2 86.8 333.2C91.5 333.1 96.1 331.3 99.5 328L122 306.8L119.8 334.7L112.1 352.1L167.3 383.3C167.3 383.3 173.8 351.2 177.3 329C180.1 311 181.5 271.9 181.5 271.9L165.3 263.9Z" fill="#0F6292"/>
<path d="M180.1 271.2C180.1 271.2 192.3 275.7 195.3 285.3C197.9 293.8 206.7 341.5 206.7 341.5L215.4 392L197.2 392.7L176.3 306.6L180.1 271.2Z" fill="#0F6292"/>
<path d="M119.3 333.5C119.1 333.5 120 323.8 121.1 311.9C122.2 300 123.3 290.4 123.4 290.4C123.5 290.4 122.7 300.1 121.6 312C120.5 323.9 119.5 333.5 119.3 333.5Z" fill="#263238"/>
<path d="M159.6 309.7C159.6 309.9 159.5 310 159.4 310.2L158.8 311.5C158.5 312.2 158.2 312.9 157.8 313.5C157.4 314.3 156.9 315.2 156.3 316.1C156 316.6 155.7 317.1 155.4 317.6C155.1 318.1 154.7 318.6 154.3 319.1C153.6 320.2 152.7 321.2 151.7 322.4C147.6 327.3 142.5 331.3 136.9 334.3C135.6 334.9 134.3 335.6 133.1 336.1C132.5 336.3 131.9 336.6 131.3 336.8L129.6 337.3C128.6 337.7 127.6 337.9 126.7 338.1C126 338.3 125.2 338.5 124.5 338.6L123.1 338.8C122.9 338.8 122.8 338.9 122.6 338.8C122.8 338.7 122.9 338.7 123.1 338.7L124.5 338.4C125.1 338.3 125.8 338.1 126.7 337.8C127.6 337.5 128.5 337.3 129.5 336.9L131.1 336.3C131.7 336.1 132.2 335.8 132.8 335.6C134 335.1 135.2 334.5 136.5 333.8C139.3 332.3 141.9 330.6 144.4 328.6C146.9 326.6 149.1 324.4 151.2 322.1C152.1 321 153 319.9 153.8 318.9C154.2 318.4 154.6 317.9 154.9 317.4L155.8 315.9C156.4 315 156.9 314.1 157.3 313.3C157.7 312.7 158 312 158.3 311.3L158.9 310C159.5 309.9 159.5 309.7 159.6 309.7Z" fill="#263238"/>
<g opacity="0.2">
<path opacity="0.2" d="M125.8 338.4C124 337.7 123.1 335.8 123.6 334C124.2 332.2 125.5 330.8 127.2 330.1C128.9 329.4 130.7 328.9 132.5 328.5C140.3 326.6 147.4 322.6 153 317C153.5 316.5 154.3 315.9 154.9 316.3C155.8 316.8 155.2 318.1 154.6 318.9C146.8 328 136.6 334.8 125.3 338.6" fill="black"/>
</g>
<path d="M180.9 327C180.7 326.7 180.6 326.3 180.5 326C180.3 325.3 180 324.4 179.7 323.1C179 320.7 178.2 317.3 177.4 313.6C176.6 309.9 175.9 306.5 175.4 304C175.2 302.8 175 301.8 174.9 301.1C174.8 300.7 174.8 300.4 174.8 300C174.9 300.3 175 300.7 175.1 301C175.3 301.8 175.5 302.8 175.8 303.9C176.4 306.5 177.1 309.8 177.9 313.4C178.7 317 179.5 320.4 180.1 322.9C180.4 324 180.6 325 180.7 325.8C180.8 326.3 180.9 326.6 180.9 327Z" fill="#263238"/>
<path d="M69.8 264.5C69.5 263.7 69.3 262.9 69.3 262.1C69.1 261.3 69.2 260.5 69.4 259.7C69.7 260.5 69.9 261.3 69.9 262.1C70 262.8 70 263.7 69.8 264.5Z" fill="#263238"/>
<path d="M74.4 264.6C74.1 263.8 74 262.9 74 262.1C73.9 261.2 73.9 260.4 74.1 259.5C74.4 260.3 74.5 261.2 74.5 262C74.6 262.9 74.6 263.8 74.4 264.6Z" fill="#263238"/>
<path d="M79 264.3C78.7 263.4 78.5 262.4 78.6 261.5C78.5 260.5 78.5 259.6 78.7 258.6C79 259.5 79.1 260.5 79.1 261.4C79.2 262.4 79.2 263.4 79 264.3Z" fill="#263238"/>
<path d="M87.9 312.9C87.8 311.5 87.8 310.1 88.1 308.7C88.2 307.3 88.4 305.9 88.8 304.6C88.9 306 88.9 307.4 88.6 308.8C88.5 310.2 88.3 311.6 87.9 312.9Z" fill="#263238"/>
<path d="M200.1 387.5C200.5 388.3 200.7 389.1 200.8 390C201 390.9 201.1 391.7 201 392.6C200.4 391 200.1 389.2 200.1 387.5Z" fill="#263238"/>
<path d="M206.1 387.5C206.5 388.2 206.7 389 206.7 389.8C206.9 390.6 207 391.4 206.8 392.2C206.4 391.5 206.2 390.7 206.2 389.9C206 389.1 206 388.2 206.1 387.5Z" fill="#263238"/>
<path d="M211.8 386.9C212.1 387.7 212.3 388.6 212.4 389.5C212.6 390.4 212.7 391.3 212.7 392.1C212.2 391.3 212 390.4 211.9 389.5C211.6 388.7 211.6 387.8 211.8 386.9Z" fill="#263238"/>
<path d="M189.9 277.1C189.9 277.2 188.6 277.1 186.7 277.5C181.5 278.6 177.2 282.3 175.5 287.3C174.8 289.2 174.7 290.5 174.6 290.4C174.5 290.1 174.5 289.8 174.6 289.5C174.7 288.7 174.9 287.9 175.1 287.1C176.7 281.8 181.2 277.9 186.6 277C187.4 276.9 188.2 276.8 189 276.8C189.3 277 189.6 277 189.9 277.1Z" fill="#263238"/>
<path d="M197.4 297.6C196.4 298.1 195.4 298.5 194.4 298.9C192.5 299.6 189.9 300.5 186.9 301.4C183.9 302.3 181.3 303.1 179.3 303.5C178.3 303.8 177.2 304 176.1 304.2C177.1 303.8 178.2 303.5 179.2 303.2L186.7 300.9L194.2 298.5C195.3 298.2 196.3 297.9 197.4 297.6Z" fill="#FAFAFA"/>
<path d="M205.1 332.5C204.1 332.9 203 333.1 202 333.4C200.1 333.9 197.4 334.5 194.4 335.1C191.4 335.7 188.7 336.3 186.7 336.6C185.6 336.8 184.6 337 183.5 337.1C184.5 336.7 185.6 336.5 186.6 336.3C188.6 335.8 191.2 335.2 194.2 334.6C197.2 334 199.9 333.4 201.9 333.1C202.9 332.7 204 332.5 205.1 332.5Z" fill="#FAFAFA"/>
<path d="M213.8 376C212.8 376.1 211.8 376.2 210.8 376.1C208.9 376.1 206.4 376.2 203.6 376.4C200.8 376.6 198.2 376.8 196.4 376.9C195.4 377 194.4 377.1 193.4 377.1C194.4 376.8 195.4 376.6 196.4 376.5C198.2 376.2 200.8 376 203.6 375.8C206.4 375.6 209 375.6 210.8 375.7C211.8 375.8 212.8 375.8 213.8 376Z" fill="#FAFAFA"/>
<path d="M133.7 335.1C133 334.9 132.3 334.6 131.6 334.2L126.7 331.9L121.8 329.6C121.1 329.3 120.4 329 119.8 328.6C120.5 328.7 121.3 329 122 329.3C123.3 329.8 125.1 330.6 127 331.5C128.9 332.4 130.6 333.3 131.8 334C132.4 334.2 133.1 334.6 133.7 335.1Z" fill="#FAFAFA"/>
<path d="M173.9 341.9C173.5 341.8 173.1 341.6 172.7 341.4L169.6 340C167 338.8 163.3 337.3 159.2 335.6C155.1 333.9 151.3 332.6 148.6 331.6L145.4 330.4C145 330.3 144.6 330.1 144.2 329.9C144.6 329.9 145 330 145.4 330.2C146.2 330.4 147.3 330.8 148.7 331.2C151.5 332.1 155.2 333.4 159.3 335.1C163.4 336.8 167.1 338.4 169.7 339.6C171 340.2 172.1 340.7 172.8 341.1C173.2 341.4 173.6 341.6 173.9 341.9Z" fill="#FAFAFA"/>
<path d="M177 313.5C176.8 313.5 176.6 313.5 176.4 313.5L174.8 313.3L168.9 312.3C163.9 311.5 157.1 310.4 149.5 309.3C141.9 308.2 135.1 307.3 130.1 306.6L124.2 305.8L122.6 305.6C122.4 305.6 122.2 305.5 122 305.5C122.2 305.5 122.4 305.5 122.6 305.5L124.2 305.6C125.6 305.7 127.6 305.9 130.1 306.2C135.1 306.8 142 307.6 149.5 308.7C157 309.8 163.9 311 168.9 311.9C171.4 312.4 173.4 312.7 174.7 313L176.3 313.3C176.6 313.3 176.8 313.4 177 313.5Z" fill="#FAFAFA"/>
<path d="M174.8 283.5C174.8 283.6 164 282.1 150.6 280.1C137.2 278.1 126.5 276.4 126.5 276.2C126.5 276 137.3 277.6 150.7 279.6C164.1 281.6 174.8 283.3 174.8 283.5Z" fill="#FAFAFA"/>
<path d="M118.1 309.7C117.5 308.7 117 307.6 116.6 306.5L113.1 298.6C111.7 295.6 110.5 292.9 109.5 290.7C109 289.6 108.5 288.5 108.1 287.4C108.3 287.6 108.5 287.9 108.6 288.2C108.9 288.7 109.3 289.5 109.8 290.5C110.8 292.5 112.1 295.2 113.5 298.3C114.9 301.4 116.1 304.2 116.9 306.3C117.3 307.3 117.6 308.2 117.8 308.8C118 309.1 118 309.4 118.1 309.7Z" fill="#FAFAFA"/>
<path d="M96.6 330.8C96.5 330.8 95.1 324.8 93.5 317.3C91.9 309.8 90.8 303.7 90.9 303.7C91 303.7 92.4 309.7 94 317.2C95.6 324.7 96.7 330.8 96.6 330.8Z" fill="#FAFAFA"/>
<path d="M87.7 298C84.6 298.9 81.5 299.7 78.3 300.3C75.2 301 72 301.6 68.8 302C71.9 301.1 75 300.3 78.2 299.7C81.3 299 84.5 298.4 87.7 298Z" fill="#FAFAFA"/>
<path d="M84.5 270.6C83.7 270.9 82.9 271.1 82 271.1C80.5 271.4 78.3 271.7 76 271.9C73.7 272.1 71.5 272.3 69.9 272.4C69.1 272.5 68.2 272.5 67.4 272.4C68.2 272.2 69 272.1 69.9 272L75.9 271.3L81.9 270.6C82.8 270.6 83.7 270.6 84.5 270.6Z" fill="#FAFAFA"/>
<path d="M92.7 223.1C93 223.7 100.5 262.3 100.5 262.3L82.8 263.1L75.9 229.9L92.7 223.1Z" fill="#455A64"/>
<path d="M100.4 262.3L102.5 261.4L94.8 223.4L92.4 223.2L100.4 262.3Z" fill="#263238"/>
<path d="M85.5 231.6C85.6 232.1 85.2 232.6 84.7 232.6C84.2 232.7 83.7 232.3 83.7 231.8C83.6 231.3 84 230.8 84.5 230.8C85 230.7 85.5 231.1 85.5 231.6Z" fill="#263238"/>
<path d="M81.9 258.7L81.6 253.7L89.2 250.6L86.2 243.6C84.8 240.5 81.2 239.1 78.1 240.5C77.9 240.6 77.8 240.6 77.7 240.7L74.7 242.3C72.5 243.5 71 245.5 70.4 247.9C69.6 252 69 256.1 68.6 260.3" fill="#FFBE9D"/>
<path d="M61.6 387.4C61.6 387.4 30.5 396 29.2 396.4C27.3 397.1 27.6 403.9 30.6 403.8C32 403.8 54.5 404.6 57.4 404.5C60.3 404.4 68.8 400.9 68.8 400.9L61.6 387.4Z" fill="#844001"/>
<path d="M48.7 399.2C48.3 398.1 47.9 396.9 47.3 395.9C46.6 394.9 45.9 393.9 45.1 393C47.4 394.2 48.7 396.6 48.7 399.2Z" fill="#263238"/>
<path d="M51.9 397.8C51.7 397.8 51.4 396.4 50.6 394.7C49.8 393 48.8 391.9 48.9 391.8C50.8 393.2 51.9 395.4 51.9 397.8Z" fill="#263238"/>
<path d="M55 396.9C54.9 395.8 54.6 394.7 54.3 393.6C53.8 392.6 53.2 391.6 52.6 390.7C54.6 392.1 55.6 394.6 55 396.9Z" fill="#263238"/>
<path d="M54.4 392.9C54.1 392.2 54 391.4 54.1 390.6C54.1 389.7 54.2 388.9 54.4 388.1C54.5 387.6 54.7 387.1 54.9 386.7C55 386.4 55.2 386.1 55.4 385.9C55.7 385.7 56.2 385.7 56.5 385.9C56.7 386.1 56.9 386.4 56.9 386.8C56.9 387.1 56.9 387.3 56.9 387.6C56.9 388.1 56.8 388.6 56.7 389.1C56.5 389.9 56.1 390.7 55.7 391.5C55.4 392.2 54.9 392.8 54.3 393.4C54.2 393.4 54.8 392.6 55.4 391.4C55.8 390.7 56 389.9 56.2 389.1C56.3 388.6 56.3 388.2 56.4 387.7C56.4 387.2 56.4 386.6 56.1 386.4C56 386.3 55.8 386.3 55.7 386.4C55.5 386.5 55.4 386.7 55.4 386.9C55.2 387.3 55.1 387.8 54.9 388.3C54.7 389.1 54.5 389.9 54.5 390.7C54.3 392 54.5 392.9 54.4 392.9Z" fill="#263238"/>
<path d="M54.4 392.6C55 392.3 55.7 392.2 56.4 392.3C57.1 392.3 57.9 392.4 58.6 392.6C59 392.7 59.5 392.9 59.9 393.1C60.4 393.4 60.7 393.9 60.6 394.5C60.5 395 60 395.5 59.5 395.6C59 395.7 58.6 395.7 58.1 395.6C56.7 395.2 55.5 394.3 54.6 393.2C55.2 393.5 55.7 393.9 56.3 394.3C56.9 394.7 57.5 395 58.2 395.1C58.6 395.2 59 395.2 59.4 395.1C59.8 395 60.1 394.7 60.2 394.4C60.3 394 60.1 393.7 59.7 393.5C59.3 393.3 59 393.2 58.6 393.1C57.9 392.9 57.2 392.8 56.5 392.7C55.2 392.6 54.5 392.7 54.4 392.6Z" fill="#263238"/>
<path d="M43.9 399.6C43.8 398.6 43.6 397.7 43.3 396.8C42.9 395.9 42.4 395.1 41.8 394.4C43.6 395.3 44.5 397.5 43.9 399.6Z" fill="#263238"/>
<path d="M65.6 401C65.2 401.2 64.8 401.4 64.4 401.6C63.3 402 62.1 402.4 60.9 402.7C57 403.6 53 403.9 49 403.8C44.3 403.8 40.1 403.5 37.1 403.4L33.5 403.2C33.1 403.2 32.6 403.2 32.2 403.1C32.6 403 33.1 403 33.5 403H37.1L49 403.2C53 403.3 56.9 403 60.8 402.2C63.8 401.7 65.6 400.9 65.6 401Z" fill="#263238"/>
<path d="M66.5 401.7C66.5 401.8 65.6 401.3 64.2 400.7C62.4 399.8 60.3 399.5 58.3 399.7C56.3 400.1 54.5 401.2 53.2 402.7C52.6 403.4 52 404 51.4 404.5C51.8 403.7 52.3 403 52.9 402.4C53.5 401.7 54.2 401.1 55 400.5C55.9 399.8 57.1 399.3 58.2 399.1C60.3 398.8 62.4 399.3 64.3 400.3C65.1 400.7 65.9 401.1 66.5 401.7Z" fill="#263238"/>
<path d="M94.7 378.8C94.7 378.8 124.1 398.1 125.2 398.9C126.8 400.1 125 405.8 122.2 404.8C120.9 404.3 96.2 397.5 93.5 396.4C90.8 395.3 83.7 389.5 83.7 389.5L94.7 378.8Z" fill="#844001"/>
<path d="M103.4 394C104.1 391.5 106.2 389.7 108.7 389.2C107.7 389.8 106.7 390.5 105.7 391.3C104.9 392.1 104.1 393 103.4 394Z" fill="#263238"/>
<path d="M100.8 391.6C101.1 390.5 101.7 389.5 102.6 388.7C103.4 387.8 104.3 387.2 105.5 386.8C105.6 386.9 104.3 387.7 103 389C101.7 390.3 100.9 391.7 100.8 391.6Z" fill="#263238"/>
<path d="M98.1 389.9C98.3 387.5 99.9 385.4 102.3 384.7C101.4 385.4 100.6 386.1 99.8 386.9C99.2 387.9 98.6 388.9 98.1 389.9Z" fill="#263238"/>
<path d="M99.8 386.3C99.7 386.3 100.1 385.5 100.5 384.1C100.7 383.3 100.8 382.5 100.8 381.7C100.8 381.2 100.8 380.7 100.8 380.2C100.8 380 100.7 379.8 100.6 379.6C100.5 379.5 100.3 379.4 100.2 379.5C99.9 379.6 99.7 380.2 99.5 380.7C99.4 381.2 99.3 381.6 99.2 382.1C99.1 382.9 99.2 383.7 99.3 384.6C99.5 386 99.8 386.8 99.7 386.9C99.3 386.2 99 385.5 98.9 384.7C98.7 383.9 98.7 383 98.7 382.1C98.7 381.6 98.8 381.1 99 380.6C99.1 380.4 99.2 380.1 99.3 379.8C99.4 379.5 99.7 379.2 100 379.1C100.4 379 100.8 379.1 101 379.4C101.2 379.7 101.2 380 101.2 380.3C101.2 380.8 101.2 381.3 101.2 381.8C101.1 382.7 101 383.5 100.7 384.3C100.7 384.9 100.3 385.6 99.8 386.3Z" fill="#263238"/>
<path d="M99.9 385.9C99.9 386 99.2 385.6 98 385.3C97.3 385.1 96.6 385 95.9 385C95.5 385 95.1 385 94.7 385.1C94.3 385.1 94 385.4 94 385.8C94 386.2 94.2 386.5 94.5 386.7C94.8 386.9 95.2 387 95.6 387.1C96.3 387.2 97 387.1 97.7 386.9C98.3 386.7 99 386.5 99.6 386.3C99.1 386.7 98.4 387 97.8 387.2C97.1 387.5 96.3 387.6 95.6 387.5C95.1 387.5 94.7 387.3 94.3 387.1C93.8 386.8 93.5 386.3 93.6 385.7C93.7 385.1 94.1 384.6 94.7 384.6C95.1 384.5 95.6 384.5 96 384.5C96.7 384.5 97.5 384.7 98.2 384.9C98.8 385.2 99.4 385.5 99.9 385.9Z" fill="#263238"/>
<path d="M118.4 403.7C118.4 403.7 117.9 403.4 117.7 402.6C117.5 401.5 117.7 400.4 118.3 399.4C118.6 398.9 118.9 398.4 119.3 397.9C119.6 397.5 119.9 397.1 120.3 396.8C120.6 396.6 120.9 396.4 121.2 396.4C121.4 396.4 121.6 396.4 121.6 396.5C121.2 396.6 120.8 396.8 120.5 397.1C120.2 397.4 119.9 397.8 119.7 398.2C119.4 398.6 119.1 399.1 118.8 399.6C118.3 400.5 118.1 401.5 118.2 402.5C118.2 402.9 118.3 403.3 118.4 403.7Z" fill="#263238"/>
<path d="M107.9 395.8C107.9 393.7 109.4 391.9 111.5 391.4C111.6 391.5 110.3 392 109.3 393.3C108.7 394.1 108.3 394.9 107.9 395.8Z" fill="#263238"/>
<path d="M86.7 390.5C87.2 390.8 87.6 391.1 88 391.4C89.2 392.2 90.4 393 91.6 393.6C93.5 394.6 95.4 395.4 97.4 396.2C99.6 397 102.1 397.8 104.8 398.6C110.1 400.1 114.9 401.5 118.4 402.6L122.5 403.9C123 404 123.5 404.2 124 404.4C123.5 404.3 123 404.2 122.5 404.1L118.4 403C114.9 402 110.1 400.7 104.8 399.2C102.1 398.4 99.6 397.6 97.4 396.8C95.4 396 93.5 395.1 91.6 394.1C90.4 393.4 89.2 392.6 88 391.7C87.5 391.3 87.1 390.9 86.7 390.5Z" fill="#263238"/>
<path d="M85.6 391C86.4 390.6 87.2 390.4 88.1 390.3C90.2 389.9 92.4 390.2 94.3 391.1C95.4 391.6 96.3 392.4 97 393.3C97.6 394.1 98 394.9 98.4 395.8C98.8 396.6 99.1 397.4 99.2 398.3C98.8 397.6 98.4 396.8 98 396C97.2 394.1 95.8 392.6 94.1 391.6C92.3 390.8 90.2 390.5 88.2 390.7C86.6 390.8 85.7 391 85.6 391Z" fill="#263238"/>
<path d="M163.7 226L165.6 264.9C165.9 271.3 161 276.7 154.6 277.1C154.4 277.1 154.2 277.1 154 277.1C147.8 277.1 142.7 272.3 142.4 266.1C142.3 263.2 142.1 260.7 142.1 260.4C142.1 260.4 132.2 259.9 131 250.2C130.4 245.5 130 235.7 129.8 226.8C129.5 217.2 136.6 209.1 146.1 208L147 207.9C157.2 207.4 163.4 215.8 163.7 226Z" fill="#FFBE9D"/>
<path d="M142.1 260.2C146.6 259.8 150.9 258.1 154.5 255.2C154.5 255.2 152.3 262.6 142.4 262.8L142.1 260.2Z" fill="#EB996E"/>
<path d="M132.9 232.9C133 233.7 133.6 234.2 134.4 234.2C135.1 234.2 135.7 233.6 135.7 232.8C135.6 232 135 231.5 134.2 231.5C133.4 231.5 132.8 232.1 132.9 232.9C132.9 232.8 132.9 232.8 132.9 232.9Z" fill="#263238"/>
<path d="M132.4 231.3C132.6 231.5 133.6 230.6 135.1 230.4C136.6 230.2 137.8 230.9 137.9 230.7C138 230.5 137.8 230.3 137.2 230C136.5 229.6 135.7 229.5 134.9 229.6C134.1 229.7 133.4 230 132.8 230.6C132.4 230.9 132.3 231.2 132.4 231.3Z" fill="#263238"/>
<path d="M147.6 231.6C147.7 232.4 148.3 232.9 149.1 232.9C149.8 232.9 150.4 232.2 150.4 231.5C150.3 230.7 149.7 230.2 148.9 230.2C148.2 230.2 147.6 230.8 147.6 231.6Z" fill="#263238"/>
<path d="M147.2 230C147.4 230.2 148.4 229.3 149.9 229.1C151.4 228.9 152.6 229.6 152.7 229.4C152.8 229.2 152.6 229 152 228.7C151.3 228.3 150.5 228.2 149.7 228.3C148.9 228.4 148.2 228.7 147.6 229.3C147.2 229.5 147.1 229.9 147.2 230Z" fill="#263238"/>
<path d="M143 241.7C142.2 241.5 141.3 241.5 140.5 241.5C140.1 241.5 139.7 241.5 139.6 241.2C139.5 240.8 139.6 240.4 139.7 240C140 239 140.2 238 140.5 237C141.6 232.7 142.4 229.1 142.2 229.1C142 229.1 141 232.5 139.9 236.9C139.6 238 139.4 239 139.1 240C138.9 240.5 138.9 241 139.1 241.5C139.2 241.8 139.5 241.9 139.8 242C140 242 140.2 242 140.5 242C141.4 242 142.2 241.9 143 241.7Z" fill="#263238"/>
<path d="M147.5 242.3C147.3 242.3 147.4 243.9 146.2 245.3C145 246.7 143.2 246.6 143.2 246.8C143.2 247 143.6 247.1 144.3 247C145.3 246.9 146.2 246.5 146.8 245.8C147.4 245.1 147.8 244.3 147.8 243.3C147.8 242.6 147.6 242.2 147.5 242.3Z" fill="#263238"/>
<path d="M146.1 224.1C146.3 224.5 147.8 224.1 149.5 224.1C151.2 224.1 152.8 224.4 153 224.1C153.1 223.9 152.8 223.6 152.2 223.2C150.5 222.4 148.6 222.4 146.9 223.2C146.4 223.6 146.1 223.9 146.1 224.1Z" fill="#263238"/>
<path d="M132.5 226.9C132.8 227.2 133.8 226.7 135 226.6C136.2 226.5 137.3 226.6 137.5 226.2C137.6 226 137.4 225.7 136.9 225.4C136.2 225.1 135.5 225 134.8 225.1C134.1 225.2 133.4 225.5 132.9 226C132.4 226.4 132.3 226.8 132.5 226.9Z" fill="#263238"/>
<path d="M163.7 233.4C163.9 233.3 170.2 230.7 170.7 237.4C171.2 244.1 164.4 243.3 164.4 243C164.4 242.7 163.7 233.4 163.7 233.4Z" fill="#FFBE9D"/>
<path d="M166.2 240.3C166.2 240.3 166.3 240.4 166.5 240.4C166.8 240.5 167.1 240.5 167.4 240.4C168.2 239.8 168.7 238.7 168.5 237.7C168.5 237.1 168.3 236.6 168 236.1C167.8 235.7 167.5 235.4 167.1 235.3C166.8 235.2 166.5 235.4 166.4 235.7C166.3 235.9 166.4 236 166.4 236C166.4 236 166.2 235.9 166.3 235.6C166.3 235.4 166.4 235.3 166.5 235.2C166.7 235 166.9 235 167.1 235C167.7 235.1 168.2 235.4 168.4 235.9C168.7 236.5 168.9 237.1 169 237.7C169.2 238.9 168.6 240.1 167.5 240.7C167.1 240.8 166.7 240.8 166.4 240.6C166.2 240.4 166.2 240.3 166.2 240.3Z" fill="#EB996E"/>
<path d="M167.4 232.7C166.1 232.8 165 233.5 164.4 234.7C164.1 235.7 164.1 236.8 163.8 237.8C163.5 238.8 162.6 239.8 161.5 239.7C160.8 239.6 160.2 239 159.9 238.3C159.7 237.6 159.6 236.9 159.7 236.2C159.7 233 160.1 229.9 159.8 226.7C159.7 223.5 158.7 220.4 156.8 217.8C154.9 215.2 151.7 213.8 148.5 214.3C146.4 214.7 144.6 216 142.6 216.5C140.2 217.1 137.6 216.5 135.6 215C135.2 214.7 134.7 214.5 134.2 214.2C134.1 213.5 134.3 212.7 134.7 212.1C138.4 207.9 145.6 206 151.2 206.8C156.9 207.6 162 210.8 165.1 215.6C168 220.3 168.1 227.4 167.4 232.7Z" fill="#263238"/>
<path d="M58.1 387C58.1 387 130.3 339.6 133.3 338.6C136.3 337.6 143.4 332.9 150.5 334.9C157.6 336.9 164.1 343.3 167.3 352.6C170.5 361.9 170.8 382.9 170.8 382.9C170.8 382.9 165.1 399.4 154.1 402.9C153.2 403.2 152.2 403.4 151.2 403.6C137.7 406.3 123.9 400.1 116.3 388.5L114.7 386C114.7 386 67.5 403.4 66.7 403.1L58.1 387Z" fill="#263238"/>
<path d="M33.5 331.7C33.5 331.7 24.7 334.8 24.6 344.8C24.5 363.8 62.9 384.7 62.9 384.7L114 350.8V347.2C114 347.3 48.2 323.6 33.5 331.7Z" fill="#263238"/>
<path d="M147.4 374C147.4 374 147.3 374.1 147 374.2L145.8 374.7L141.2 376.5L124.2 382.9C117 385.6 108.3 388.8 98.6 392.3C88.9 395.8 78.1 399.7 66.6 403.6L66.4 403.7L66.3 403.5C64.5 400 62.6 396.4 60.7 392.7L57.8 387.2L57.7 387L57.9 386.9L113 351.9L129.6 341.5L134.1 338.7L135.3 338L135.7 337.8C135.6 337.9 135.5 338 135.3 338.1L134.2 338.9L129.8 341.8L113.3 352.4L58.3 387.5L58.4 387.2C59.3 388.9 60.3 390.8 61.3 392.7L66.9 403.5L66.6 403.4C78.1 399.5 88.8 395.7 98.6 392.2L124.2 382.9L141.3 376.6L145.9 374.9L147.1 374.5L147.4 374Z" fill="#455A64"/>
<path d="M88.2 367.9C87.7 367.6 87.3 367.3 86.9 367C86.1 366.4 84.9 365.5 83.4 364.4C80.5 362.1 76.5 358.9 72.2 355.3C67.9 351.7 64.2 348.2 61.5 345.6C60.2 344.3 59.1 343.3 58.4 342.5C58 342.1 57.6 341.7 57.3 341.3C57.7 341.6 58.1 341.9 58.5 342.3L61.7 345.2C64.4 347.7 68.2 351.1 72.5 354.7C76.8 358.3 80.7 361.6 83.6 363.9L87 366.7C87.4 367.2 87.8 367.5 88.2 367.9Z" fill="#455A64"/>
<path d="M47.9 338.8C49.6 338.5 51.2 338.7 52.8 339.3C54.4 339.7 55.9 340.5 57.2 341.6C57.1 341.7 55.2 340.6 52.7 339.8C50.2 339 47.9 339 47.9 338.8Z" fill="#455A64"/>
<path d="M52.3 335.8C53.5 336.2 54.6 337 55.3 338.1C56.2 339.1 56.7 340.3 56.9 341.5C56.7 341.5 56.2 340 54.9 338.4C53.6 336.8 52.2 336 52.3 335.8Z" fill="#455A64"/>
<path d="M30.7 395.9C30.7 395.8 31.3 395.7 32 396.3C32.8 397.1 33.4 398.2 33.5 399.3C33.7 400.4 33.5 401.5 33 402.6C32.6 403.4 32.2 403.7 32.2 403.7C32.2 403.7 32.4 403.2 32.7 402.5C33 401.5 33.1 400.5 33 399.4C32.9 398.4 32.5 397.4 31.8 396.6C31.4 396.3 31.1 396.1 30.7 395.9Z" fill="#263238"/>
<path d="M271.1 118.1L262.8 149.8H269.7C273 149.8 275.9 147.6 276.8 144.3L283.6 118.1H271.1Z" fill="white"/>
<path fill-rule="evenodd" clip-rule="evenodd" d="M267 154.3C271.3 154.3 274.7 157.8 274.7 162C274.7 166.3 271.2 169.7 267 169.7C262.8 169.7 259.3 166.2 259.3 162C259.2 157.8 262.7 154.3 267 154.3Z" fill="white"/>
</svg>
